<svg id="icon-stocked" xmlns="http://www.w3.org/2000/svg" width="42" height="42.171" viewBox="0 0 42 42.171">
  <path id="Path_2" data-name="Path 2" d="M24,12.247v9.584a5.751,5.751,0,0,0,3.834,5.406v8.012H25.919a1.917,1.917,0,0,0,0,3.834h7.667a1.917,1.917,0,0,0,0-3.834H31.67V27.236A5.751,5.751,0,0,0,35.5,21.831V12.247Zm9.584,9.584a3.834,3.834,0,1,1-7.667,0V14.163h7.667ZM13.306,7.838V6.5a1.361,1.361,0,1,0,0-2.722V2.432a1.342,1.342,0,0,0-1.38-1.342H9.2a1.342,1.342,0,0,0-1.38,1.3v1.38a1.361,1.361,0,1,0,0,2.722V7.838C7.863,11.748,1,16.08,1,19.914V36.207a2.684,2.684,0,0,0,2.722,2.722H17.447a3.029,3.029,0,0,0,2.722-2.569V19.914C20.169,16.425,13.306,11.518,13.306,7.838ZM10.585,31.415a5.751,5.751,0,1,1,5.751-5.751,5.751,5.751,0,0,1-5.751,5.751Z" transform="translate(2.834 3.088)" fill="#72a84a"/>
  <rect id="Rectangle_6" data-name="Rectangle 6" width="42" height="42" fill="rgba(0,0,0,0)"/>
</svg>
