<svg xmlns="http://www.w3.org/2000/svg" width="48" height="48" viewBox="0 0 48 48">
  <g id="icon-wifi" transform="translate(-0.335 -0.335)">
    <path id="Path_1" data-name="Path 1" d="M95.618,202.842a15.215,15.215,0,0,0-19.967,0,.385.385,0,0,0-.038.532l1.711,2.039a.384.384,0,0,0,.542.043,11.784,11.784,0,0,1,15.542,0,.384.384,0,0,0,.542-.043l1.711-2.039A.382.382,0,0,0,95.618,202.842Zm5.58-6.659a24.335,24.335,0,0,0-31.127,0,.383.383,0,0,0-.048.537l1.711,2.039a.378.378,0,0,0,.532.048,20.917,20.917,0,0,1,26.735,0,.377.377,0,0,0,.532-.048l1.711-2.039A.383.383,0,0,0,101.2,196.183Zm5.547-6.607a33.461,33.461,0,0,0-42.292-.1.38.38,0,0,0-.052.542l1.711,2.039a.381.381,0,0,0,.528.052,30.039,30.039,0,0,1,37.914.09.378.378,0,0,0,.532-.052l1.711-2.039A.375.375,0,0,0,106.744,189.576Zm-24.2,20.751a3.042,3.042,0,1,0,3.042-3.042A3.042,3.042,0,0,0,82.547,210.328Z" transform="translate(-61.254 -173.35)" fill="#72a84a"/>
    <rect id="Rectangle_5" data-name="Rectangle 5" width="48" height="48" transform="translate(0.335 0.335)" fill="rgba(0,0,0,0)"/>
  </g>
</svg>
