<svg xmlns="http://www.w3.org/2000/svg" width="49" height="49" viewBox="0 0 49 49">
  <g id="icon-hottub" transform="translate(-884 623)">
    <circle id="Ellipse_1" data-name="Ellipse 1" cx="4" cy="4" r="4" transform="translate(895 -615)" fill="#72a84a"/>
    <path id="Path_3" data-name="Path 3" d="M20.927,21.617a9.938,9.938,0,0,1-1.7-1.489l-2.9-3.206a4.438,4.438,0,0,0-1.427-1.034,4.6,4.6,0,0,0-1.986-.476H12.86a4.661,4.661,0,0,0-4.654,4.654v1.551H2V38.166A4.149,4.149,0,0,0,6.137,42.3h33.1a4.149,4.149,0,0,0,4.137-4.137V21.617ZM12.343,38.166H8.206V25.754h4.137Zm8.274,0H16.48V25.754h4.137Zm8.274,0H24.754V25.754h4.137Zm8.274,0H33.028V25.754h4.137ZM33.9,11.709a5.225,5.225,0,0,1,1.386,4.551l-.228,1.22h3.951l.124-.889a8.764,8.764,0,0,0-2.689-7.674L36.3,8.771A5.225,5.225,0,0,1,34.911,4.22L35.1,3h-3.91l-.124.889a8.881,8.881,0,0,0,2.689,7.7Zm-8.274,0a5.225,5.225,0,0,1,1.386,4.551l-.228,1.22h3.951l.124-.889a8.764,8.764,0,0,0-2.689-7.674l-.145-.145A5.225,5.225,0,0,1,26.637,4.22L26.823,3h-3.91l-.124.889a8.881,8.881,0,0,0,2.689,7.7l.145.124Z" transform="translate(886.137 -619.795)" fill="#72a84a"/>
    <rect id="Rectangle_7" data-name="Rectangle 7" width="49" height="49" transform="translate(884 -623)" fill="rgba(0,0,0,0)"/>
  </g>
</svg>
